<svg width="560" height="120" viewBox="0 0 560 120" fill="none" xmlns="http://www.w3.org/2000/svg">
<g clip-path="url(#clip0_50_8615)">
<rect width="120" height="120" rx="28.8" fill="#FACC15"/>
<circle cx="49.1996" cy="49.2" r="3.6" fill="#292524"/>
<circle cx="70.7992" cy="49.2" r="3.6" fill="#292524"/>
<path d="M44.4004 62.4C55.2004 72.6 67.2004 72.6 75.6004 62.4" stroke="black" stroke-width="3.6" stroke-linecap="round"/>
<circle cx="60" cy="200.4" r="112.2" fill="#A855F7" stroke="#292524" stroke-width="3.6"/>
<path d="M60 88.2V118.2" stroke="#292524" stroke-width="3.6" stroke-linecap="round"/>
<circle cx="25.1998" cy="-24" r="60.6" fill="#FB923C" stroke="#292524" stroke-width="3.6"/>
<circle cx="127.2" cy="-24" r="60.6" fill="#FB923C" stroke="#292524" stroke-width="3.6"/>
</g>
<rect x="1.8" y="1.8" width="116.4" height="116.4" rx="27" stroke="#292524" stroke-width="3.6"/>
<g clip-path="url(#clip1_50_8615)">
<rect x="88" width="120" height="120" rx="28.8" fill="#F43F5E"/>
<circle cx="137.2" cy="49.2" r="3.6" fill="#292524"/>
<circle cx="158.799" cy="49.2" r="3.6" fill="#292524"/>
<path d="M132.4 62.4C143.2 72.6 155.2 72.6 163.6 62.4" stroke="black" stroke-width="3.6" stroke-linecap="round"/>
<circle cx="105.4" cy="15" r="21.6" fill="#22D3EE" stroke="#292524" stroke-width="3.6"/>
<circle cx="136.6" cy="15" r="21.6" fill="#22D3EE" stroke="#292524" stroke-width="3.6"/>
<circle cx="171.4" cy="15" r="21.6" fill="#22D3EE" stroke="#292524" stroke-width="3.6"/>
<circle cx="206.2" cy="15" r="21.6" fill="#22D3EE" stroke="#292524" stroke-width="3.6"/>
<circle cx="96.4" cy="141.6" r="60.6" fill="#FACC15" stroke="#292524" stroke-width="3.6"/>
<circle cx="196" cy="141.6" r="60.6" fill="#FACC15" stroke="#292524" stroke-width="3.6"/>
</g>
<rect x="89.8" y="1.8" width="116.4" height="116.4" rx="27" stroke="#292524" stroke-width="3.6"/>
<g clip-path="url(#clip2_50_8615)">
<rect x="176" width="120" height="120" rx="28.8" fill="#38BDF8"/>
<circle cx="225.2" cy="49.2" r="3.6" fill="#292524"/>
<circle cx="246.799" cy="49.2" r="3.6" fill="#292524"/>
<path d="M220.4 62.4C231.2 72.6 243.2 72.6 251.6 62.4" stroke="black" stroke-width="3.6" stroke-linecap="round"/>
<circle cx="171.2" cy="141.6" r="60.6" fill="#A3E635" stroke="#292524" stroke-width="3.6"/>
<circle cx="302" cy="141.6" r="60.6" fill="#A3E635" stroke="#292524" stroke-width="3.6"/>
<path d="M178.331 30.1535L172.813 26.4749C168.807 23.8042 166.4 19.308 166.4 14.4933V-21.6C166.4 -29.5529 172.847 -36 180.8 -36H328.4C336.353 -36 342.8 -29.5529 342.8 -21.6V13.56C342.8 18.8781 339.869 23.7633 335.177 26.2659L332.399 27.7474C327.72 30.243 322.047 29.9647 317.635 27.023L317.106 26.6701C312.939 23.8927 307.63 23.4788 303.083 25.577L300.184 26.9154C296.735 28.507 292.798 28.6717 289.228 27.3738L286.68 26.447C283.405 25.2562 279.81 25.2932 276.56 26.551L269.523 29.2752C265.405 30.8693 260.783 30.4857 256.983 28.2344L252.838 25.778C249.027 23.5197 244.389 23.1411 240.262 24.7515L228.878 29.1942C224.672 30.8354 219.941 30.4093 216.096 28.0433L214.34 26.963C209.612 24.0532 203.632 24.1209 198.97 27.137L194.141 30.2618C189.321 33.381 183.108 33.3384 178.331 30.1535Z" fill="#FACC15" stroke="black" stroke-width="3.6" stroke-linecap="round"/>
</g>
<rect x="177.8" y="1.8" width="116.4" height="116.4" rx="27" stroke="#292524" stroke-width="3.6"/>
<g clip-path="url(#clip3_50_8615)">
<rect x="264" width="120" height="120" rx="28.8" fill="#F43F5E"/>
<circle cx="313.2" cy="49.2" r="3.6" fill="#292524"/>
<circle cx="334.799" cy="49.2" r="3.6" fill="#292524"/>
<path d="M308.4 62.4C319.2 72.6 331.2 72.6 339.6 62.4" stroke="black" stroke-width="3.6" stroke-linecap="round"/>
<circle cx="281.4" cy="15" r="21.6" fill="#22D3EE" stroke="#292524" stroke-width="3.6"/>
<circle cx="312.6" cy="15" r="21.6" fill="#22D3EE" stroke="#292524" stroke-width="3.6"/>
<circle cx="347.4" cy="15" r="21.6" fill="#22D3EE" stroke="#292524" stroke-width="3.6"/>
<circle cx="382.2" cy="15" r="21.6" fill="#22D3EE" stroke="#292524" stroke-width="3.6"/>
<circle cx="272.4" cy="141.6" r="60.6" fill="#FACC15" stroke="#292524" stroke-width="3.6"/>
<circle cx="372" cy="141.6" r="60.6" fill="#FACC15" stroke="#292524" stroke-width="3.6"/>
</g>
<rect x="265.8" y="1.8" width="116.4" height="116.4" rx="27" stroke="#292524" stroke-width="3.6"/>
<g clip-path="url(#clip4_50_8615)">
<rect x="352" width="120" height="120" rx="28.8" fill="#FACC15"/>
<circle cx="401.2" cy="49.2" r="3.6" fill="#292524"/>
<circle cx="422.799" cy="49.2" r="3.6" fill="#292524"/>
<path d="M396.4 62.4C407.2 72.6 419.2 72.6 427.6 62.4" stroke="black" stroke-width="3.6" stroke-linecap="round"/>
<circle cx="412" cy="200.4" r="112.2" fill="#A855F7" stroke="#292524" stroke-width="3.6"/>
<path d="M412 88.2V118.2" stroke="#292524" stroke-width="3.6" stroke-linecap="round"/>
<circle cx="377.2" cy="-24" r="60.6" fill="#FB923C" stroke="#292524" stroke-width="3.6"/>
<circle cx="479.2" cy="-24" r="60.6" fill="#FB923C" stroke="#292524" stroke-width="3.6"/>
</g>
<rect x="353.8" y="1.8" width="116.4" height="116.4" rx="27" stroke="#292524" stroke-width="3.6"/>
<g clip-path="url(#clip5_50_8615)">
<rect x="440" width="120" height="120" rx="28.8" fill="#F43F5E"/>
<circle cx="489.2" cy="49.2" r="3.6" fill="#292524"/>
<circle cx="510.799" cy="49.2" r="3.6" fill="#292524"/>
<path d="M484.4 62.4C495.2 72.6 507.2 72.6 515.6 62.4" stroke="black" stroke-width="3.6" stroke-linecap="round"/>
<circle cx="457.4" cy="15" r="21.6" fill="#22D3EE" stroke="#292524" stroke-width="3.6"/>
<circle cx="488.6" cy="15" r="21.6" fill="#22D3EE" stroke="#292524" stroke-width="3.6"/>
<circle cx="523.4" cy="15" r="21.6" fill="#22D3EE" stroke="#292524" stroke-width="3.6"/>
<circle cx="558.2" cy="15" r="21.6" fill="#22D3EE" stroke="#292524" stroke-width="3.6"/>
<circle cx="448.4" cy="141.6" r="60.6" fill="#FACC15" stroke="#292524" stroke-width="3.6"/>
<circle cx="548" cy="141.6" r="60.6" fill="#FACC15" stroke="#292524" stroke-width="3.6"/>
</g>
<rect x="441.8" y="1.8" width="116.4" height="116.4" rx="27" stroke="#292524" stroke-width="3.6"/>
<defs>
<clipPath id="clip0_50_8615">
<rect width="120" height="120" rx="28.8" fill="white"/>
</clipPath>
<clipPath id="clip1_50_8615">
<rect x="88" width="120" height="120" rx="28.8" fill="white"/>
</clipPath>
<clipPath id="clip2_50_8615">
<rect x="176" width="120" height="120" rx="28.8" fill="white"/>
</clipPath>
<clipPath id="clip3_50_8615">
<rect x="264" width="120" height="120" rx="28.8" fill="white"/>
</clipPath>
<clipPath id="clip4_50_8615">
<rect x="352" width="120" height="120" rx="28.8" fill="white"/>
</clipPath>
<clipPath id="clip5_50_8615">
<rect x="440" width="120" height="120" rx="28.8" fill="white"/>
</clipPath>
</defs>
</svg>
