<svg width="127" height="126" viewBox="0 0 127 126" fill="none" xmlns="http://www.w3.org/2000/svg">
<path d="M126.5 63C126.5 97.7939 96.2939 126 61.5 126C26.7061 126 3.5 97.7939 3.5 63C3.5 28.2061 26.7061 0 61.5 0C96.2939 0 126.5 28.2061 126.5 63Z" fill="#CA8A04"/>
<path d="M119.5 63C119.5 97.7939 96.2939 126 61.5 126C26.7061 126 0.5 97.7939 0.5 63C0.5 28.2061 26.7061 0 61.5 0C96.2939 0 119.5 28.2061 119.5 63Z" fill="#FACC15"/>
<g filter="url(#filter0_d_121_9117)">
<path d="M25.499 74.8716C22.4609 74.8716 20.0039 74.4316 18.1279 73.5518C16.2519 72.6719 14.8823 71.4434 14.019 69.8662C13.1724 68.2725 12.749 66.4297 12.749 64.3379C12.749 62.1963 13.1641 60.3702 13.9941 58.8594C14.8242 57.3487 15.9697 56.1949 17.4306 55.398C18.9082 54.6011 20.6015 54.2027 22.5107 54.2027C23.8222 54.2027 24.9428 54.3355 25.8725 54.6011C26.8022 54.8668 27.5161 55.3233 28.0141 55.9708C28.5288 56.6182 28.7944 57.5147 28.811 58.6602C29.0434 58.0294 29.1264 57.3902 29.06 56.7427C29.0102 56.0787 28.9521 55.4146 28.8857 54.7506C29.6826 54.734 30.5873 54.7174 31.6 54.7008C32.6127 54.6675 33.6005 54.6343 34.5634 54.6011C35.5263 54.5679 36.3398 54.5513 37.0038 54.5513C37.12 55.066 37.2113 55.7134 37.2777 56.4937C37.3442 57.2574 37.3774 58.0792 37.3774 58.959C37.394 59.8389 37.3774 60.7022 37.3275 61.5489C37.2777 62.3955 37.1947 63.1509 37.0785 63.815C36.5639 63.898 35.9164 63.9644 35.1361 64.0142C34.3559 64.064 33.5092 64.0972 32.5961 64.1138C31.6996 64.1138 30.8032 64.1138 29.9067 64.1138C29.0268 64.0972 28.2133 64.064 27.4663 64.0142C26.7192 63.9644 26.1049 63.898 25.6235 63.815L25.5986 62.794H24.2788V66.0064H25.5986V64.836C27.5244 64.7364 29.4169 64.6866 31.2763 64.6866C33.1523 64.6866 35.1445 64.7364 37.2528 64.836C37.1698 67.1104 36.7133 68.9946 35.8832 70.4888C35.0697 71.9663 33.8163 73.0703 32.123 73.8008C30.4296 74.5146 28.2216 74.8716 25.499 74.8716ZM49.9477 74.8716C45.9634 74.8716 42.9502 74.0249 40.9082 72.3315C38.8828 70.6382 37.8701 68.1314 37.8701 64.8111C37.8701 61.1587 38.8994 58.4776 40.958 56.7676C43.0166 55.0577 46.0547 54.2027 50.0722 54.2027C54.3554 54.2027 57.4931 55.0494 59.4853 56.7427C61.4775 58.4195 62.4736 60.8931 62.4736 64.1636C62.4736 67.8657 61.4194 70.5801 59.311 72.3066C57.2026 74.0166 54.0815 74.8716 49.9477 74.8716ZM49.3999 66.1309H50.9189V62.9185H49.3999V66.1309ZM62.9561 74.4233C62.8066 74.0747 62.6904 73.6348 62.6074 73.1035C62.5244 72.5723 62.4746 72.0244 62.458 71.46C62.4414 70.8789 62.458 70.3228 62.5078 69.7915C62.5742 69.2603 62.6655 68.8203 62.7817 68.4717C63.0308 68.3721 63.2798 68.2061 63.5288 67.9737C63.7944 67.7246 64.0102 67.3345 64.1763 66.8032C64.3423 66.2554 64.4253 65.4917 64.4253 64.5122C64.4253 63.4497 64.3257 62.6529 64.1265 62.1216C63.9272 61.5738 63.6948 61.2085 63.4292 61.0259C63.1802 60.8267 62.9644 60.7271 62.7817 60.7271C62.6323 60.4283 62.5161 60.0215 62.4331 59.5069C62.3501 58.9922 62.3086 58.4444 62.3086 57.8633C62.3252 57.2657 62.375 56.6929 62.458 56.1451C62.5576 55.5806 62.6987 55.0992 62.8813 54.7008C63.3794 54.734 64.0185 54.7838 64.7988 54.8502C65.5791 54.9166 66.4009 54.9747 67.2641 55.0245C68.144 55.0577 68.9575 55.0743 69.7046 55.0743C70.5346 55.0743 71.3896 55.0577 72.2695 55.0245C73.1494 54.9747 73.9794 54.9166 74.7597 54.8502C75.54 54.7838 76.1791 54.734 76.6772 54.7008C76.8432 55.0992 76.9677 55.5806 77.0507 56.1451C77.1337 56.6929 77.1752 57.2657 77.1752 57.8633C77.1752 58.461 77.142 59.0171 77.0756 59.5318C77.0092 60.0464 76.9013 60.4532 76.7519 60.752C76.5029 60.752 76.2539 60.8516 76.0048 61.0508C75.7558 61.2334 75.5483 61.5904 75.3823 62.1216C75.2163 62.6529 75.1333 63.4497 75.1333 64.5122C75.1333 65.4917 75.2163 66.2554 75.3823 66.8032C75.5649 67.3345 75.7807 67.7246 76.0297 67.9737C76.2788 68.2061 76.5278 68.3721 76.7768 68.4717C76.9096 68.8203 77.0009 69.2603 77.0507 69.7915C77.1005 70.3228 77.1171 70.8789 77.1005 71.46C77.0839 72.0244 77.0341 72.5723 76.9511 73.1035C76.8681 73.6348 76.7519 74.0747 76.6025 74.4233C76.1044 74.3735 75.4653 74.3154 74.685 74.249C73.9047 74.1992 73.0747 74.1494 72.1948 74.0996C71.3149 74.0498 70.4599 74.0249 69.6299 74.0249C68.8662 74.0249 68.061 74.0498 67.2143 74.0996C66.3843 74.1494 65.5874 74.1992 64.8237 74.249C64.0767 74.3154 63.4541 74.3735 62.9561 74.4233ZM78.1789 74.4233C78.0461 74.0747 77.9382 73.6348 77.8552 73.1035C77.7722 72.5723 77.7224 72.0244 77.7058 71.46C77.7058 70.8789 77.7224 70.3228 77.7556 69.7915C77.8054 69.2603 77.8884 68.8203 78.0046 68.4717C78.2702 68.3721 78.5276 68.2061 78.7766 67.9737C79.0256 67.7246 79.2331 67.3345 79.3991 66.8032C79.5651 66.2554 79.6482 65.4917 79.6482 64.5122C79.6482 63.4497 79.5485 62.6529 79.3493 62.1216C79.1667 61.5738 78.9426 61.2085 78.677 61.0259C78.4279 60.8267 78.2038 60.7271 78.0046 60.7271C77.8552 60.4283 77.7473 60.0215 77.6809 59.5069C77.6145 58.9922 77.5813 58.4444 77.5813 57.8633C77.5979 57.2657 77.6477 56.6929 77.7307 56.1451C77.8137 55.5806 77.9382 55.0992 78.1042 54.7008C78.5691 54.734 79.1086 54.7838 79.7229 54.8502C80.3537 54.9 80.9929 54.9498 81.6403 54.9996C82.3044 55.0328 82.9187 55.0494 83.4831 55.0494C84.695 55.0494 85.965 55.0245 87.2931 54.9747C88.6379 54.9083 90.1984 54.817 91.9748 54.7008C91.7091 55.7965 91.6012 56.6929 91.651 57.3902C91.7174 58.0875 92.0246 58.6934 92.5724 59.2081C93.1203 59.7227 93.967 60.254 95.1125 60.8018L95.4362 60.1543C94.3903 59.6563 93.6266 59.1915 93.1452 58.7598C92.6803 58.3116 92.4313 57.7803 92.3981 57.1661C92.3649 56.5352 92.4728 55.7134 92.7218 54.7008C93.4357 54.7174 94.2409 54.7838 95.1374 54.9C96.0504 55.0162 97.088 55.0743 98.2501 55.0743C99.2794 55.0743 100.209 55.0328 101.039 54.9498C101.886 54.8502 102.65 54.7672 103.33 54.7008C103.48 55.0992 103.596 55.5806 103.679 56.1451C103.762 56.6929 103.803 57.2657 103.803 57.8633C103.803 58.461 103.77 59.0171 103.704 59.5318C103.637 60.0464 103.538 60.4532 103.405 60.752C103.206 60.752 102.973 60.8516 102.708 61.0508C102.459 61.2334 102.243 61.5904 102.06 62.1216C101.878 62.6529 101.786 63.4497 101.786 64.5122C101.786 65.4917 101.869 66.2554 102.035 66.8032C102.201 67.3345 102.409 67.7246 102.658 67.9737C102.907 68.2061 103.164 68.3721 103.43 68.4717C103.546 68.8203 103.621 69.2603 103.654 69.7915C103.704 70.3228 103.72 70.8789 103.704 71.46C103.704 72.0244 103.662 72.5723 103.579 73.1035C103.496 73.6348 103.388 74.0747 103.255 74.4233C102.591 74.3403 101.753 74.249 100.74 74.1494C99.7443 74.0664 98.7067 74.0249 97.6276 74.0249C96.2331 74.0249 94.88 74.0747 93.5685 74.1743C92.257 74.2739 90.8376 74.3569 89.3102 74.4233C89.5427 73.3276 89.634 72.4063 89.5842 71.6592C89.5343 70.9121 89.3102 70.2564 88.9118 69.6919C88.5134 69.1109 87.9157 68.563 87.1188 68.0484L86.7204 68.646C87.4343 69.1275 87.9572 69.6338 88.2892 70.1651C88.6213 70.6797 88.7956 71.2857 88.8122 71.9829C88.8454 72.6636 88.7541 73.4771 88.5383 74.4233C87.9904 74.3569 87.318 74.2739 86.5212 74.1743C85.7409 74.0747 84.8112 74.0249 83.7321 74.0249C82.7194 74.0249 81.7067 74.0747 80.694 74.1743C79.698 74.2739 78.8596 74.3569 78.1789 74.4233Z" fill="#854D0E"/>
</g>
<defs>
<filter id="filter0_d_121_9117" x="12.749" y="54.2027" width="92.0547" height="22.6689" filterUnits="userSpaceOnUse" color-interpolation-filters="sRGB">
<feFlood flood-opacity="0" result="BackgroundImageFix"/>
<feColorMatrix in="SourceAlpha" type="matrix" values="0 0 0 0 0 0 0 0 0 0 0 0 0 0 0 0 0 0 127 0" result="hardAlpha"/>
<feOffset dx="1" dy="2"/>
<feComposite in2="hardAlpha" operator="out"/>
<feColorMatrix type="matrix" values="0 0 0 0 0.443137 0 0 0 0 0.247059 0 0 0 0 0.0705882 0 0 0 1 0"/>
<feBlend mode="normal" in2="BackgroundImageFix" result="effect1_dropShadow_121_9117"/>
<feBlend mode="normal" in="SourceGraphic" in2="effect1_dropShadow_121_9117" result="shape"/>
</filter>
</defs>
</svg>
