<svg width="1000" height="1000" viewBox="0 0 1000 1000" fill="none" xmlns="http://www.w3.org/2000/svg">
<g clip-path="url(#clip0_369_3817)">
<rect width="1000" height="1000" fill="white"/>
<path d="M417.507 464.489C451.759 452.022 470.062 413.338 448.762 383.758C432.301 360.899 411.844 340.975 388.206 325.031C346.188 296.689 296.276 282.377 245.624 284.146C194.972 285.915 146.18 303.674 106.241 334.877C66.3025 366.081 37.2673 409.127 23.2972 457.847C9.32706 506.567 11.1392 558.458 28.4738 606.085C45.8084 653.711 77.7756 694.627 119.794 722.969C161.812 751.311 211.724 765.623 262.376 763.854C290.871 762.859 318.777 756.803 344.85 746.14C378.589 732.342 383.566 689.837 361.125 661.114C338.684 632.39 296.026 629.955 259.625 631.853C259.007 631.886 258.388 631.913 257.769 631.934C234.976 632.73 212.515 626.29 193.607 613.536C174.699 600.782 160.314 582.37 152.513 560.938C144.713 539.506 143.897 516.155 150.184 494.231C156.47 472.307 169.536 452.936 187.509 438.895C205.481 424.853 227.437 416.862 250.231 416.066C273.024 415.27 295.485 421.71 314.393 434.464C314.907 434.81 315.417 435.161 315.924 435.516C345.788 456.415 383.254 476.955 417.507 464.489Z" fill="#292524"/>
<path d="M81.1641 503.906C44.9572 499.697 11.2565 526.073 17.0374 562.062C21.0087 586.786 28.8462 610.871 40.3845 633.4C62.0218 675.649 95.7015 710.534 137.165 733.641C178.628 756.749 226.012 767.043 273.325 763.221C298.556 761.182 323.161 755.179 346.278 745.551C379.926 731.536 384.631 689 362.005 660.422L360.525 658.553C338.717 631.006 297.717 628.82 262.696 631.649C241.405 633.369 220.083 628.737 201.424 618.339C182.766 607.94 167.61 592.242 157.873 573.23C141.858 541.958 118.431 508.239 83.5318 504.182L81.1641 503.906Z" fill="#E11D48"/>
<rect x="557.456" y="290.063" width="120" height="500" rx="60" transform="rotate(24 557.456 290.063)" fill="#FACC15"/>
<rect width="120" height="400" rx="60" transform="matrix(-0.913545 0.406737 0.406737 0.913545 616.044 288.677)" fill="#292524"/>
<rect x="781.338" y="290.677" width="120" height="400" rx="60" transform="rotate(24 781.338 290.677)" fill="#9333EA"/>
<rect width="120" height="400" rx="60" transform="matrix(-0.913545 0.406737 0.406737 0.913545 846.043 290.677)" fill="#292524"/>
</g>
<defs>
<clipPath id="clip0_369_3817">
<rect width="1000" height="1000" fill="white"/>
</clipPath>
</defs>
</svg>
