<svg width="240" height="200" viewBox="0 0 240 200" fill="none" xmlns="http://www.w3.org/2000/svg">
<g clip-path="url(#clip0_288_5433)">
<rect x="12" y="10" width="160" height="160" rx="38.4" fill="#38BDF8"/>
<circle cx="77.6008" cy="75.6" r="4.8" fill="#292524"/>
<circle cx="106.402" cy="75.6" r="4.8" fill="#292524"/>
<path d="M71.1992 93.2C85.5992 106.8 101.599 106.8 112.799 93.2" stroke="black" stroke-width="4.8" stroke-linecap="round"/>
<circle cx="5.59844" cy="198.8" r="80.8" fill="#A3E635" stroke="#292524" stroke-width="4.8"/>
<circle cx="180.001" cy="198.8" r="80.8" fill="#A3E635" stroke="#292524" stroke-width="4.8"/>
<path d="M15.1063 50.2047L7.74898 45.2998C2.40756 41.7389 -0.800781 35.7441 -0.800781 29.3245V-18.8C-0.800781 -29.4039 7.79533 -38 18.3992 -38H215.199C225.803 -38 234.399 -29.4039 234.399 -18.8V28.08C234.399 35.1708 230.491 41.6843 224.235 45.0212L220.531 46.9965C214.292 50.324 206.729 49.9529 200.845 46.0307L200.139 45.5602C194.585 41.857 187.505 41.3051 181.443 44.1027L177.577 45.8871C172.979 48.0093 167.729 48.229 162.97 46.4984L159.572 45.2627C155.205 43.675 150.412 43.7242 146.079 45.4014L136.696 49.0336C131.205 51.1591 125.042 50.6476 119.977 47.6459L114.45 44.3707C109.368 41.3595 103.184 40.8547 97.6816 43.002L82.5025 48.9256C76.8951 51.1138 70.5861 50.5458 65.4598 47.3911L63.119 45.9506C56.8144 42.0709 48.841 42.1612 42.6259 46.1827L36.187 50.3491C29.7597 54.5079 21.476 54.4512 15.1063 50.2047Z" fill="#FACC15" stroke="black" stroke-width="4.8" stroke-linecap="round"/>
</g>
<rect x="14.4" y="12.4" width="155.2" height="155.2" rx="36" stroke="#292524" stroke-width="4.8"/>
<path d="M189.046 135.556V125.864H193.455V129.636C193.455 131.469 192.727 133.226 191.431 134.522C190.745 135.208 189.929 135.735 189.041 136.079C189.044 135.906 189.045 135.733 189.046 135.56V135.556ZM195.955 114.591H189.046V113.954C189.046 111.628 188.121 109.396 186.476 107.751C184.831 106.106 182.599 105.182 180.273 105.182H130.091C127.765 105.182 125.533 106.106 123.888 107.751C122.243 109.396 121.318 111.628 121.318 113.954V114.591H114.409C112.083 114.591 109.851 115.515 108.206 117.16C106.561 118.805 105.637 121.037 105.637 123.364V129.636C105.637 134.458 107.552 139.083 110.962 142.493C112.65 144.181 114.655 145.52 116.861 146.434C118.959 147.303 121.2 147.771 123.468 147.815C125.579 153.42 129.141 158.378 133.804 162.172C138.357 165.876 143.783 168.327 149.546 169.303V174.182H142.637C141.142 174.182 139.708 174.775 138.651 175.832C137.594 176.889 137 178.323 137 179.818C137 181.313 137.594 182.746 138.651 183.803C139.708 184.86 141.142 185.454 142.637 185.454H167.727C169.222 185.454 170.656 184.86 171.713 183.803C172.77 182.746 173.364 181.313 173.364 179.818C173.364 178.323 172.77 176.889 171.713 175.832C170.656 174.775 169.222 174.182 167.727 174.182H160.818V169.29C172.734 167.259 182.54 158.901 186.779 147.816C191.517 147.756 196.047 145.847 199.402 142.493C202.812 139.083 204.727 134.458 204.727 129.636V123.364C204.727 121.037 203.803 118.805 202.158 117.16C200.513 115.515 198.281 114.591 195.955 114.591ZM121.318 135.909C121.318 135.965 121.319 136.021 121.319 136.077C120.433 135.733 119.618 135.207 118.933 134.522C117.637 133.226 116.909 131.469 116.909 129.636V125.864H121.318V135.909Z" fill="#FACC15" stroke="#292524" stroke-width="5"/>
<defs>
<clipPath id="clip0_288_5433">
<rect x="12" y="10" width="160" height="160" rx="38.4" fill="white"/>
</clipPath>
</defs>
</svg>
