<svg width="151" height="52" viewBox="0 0 151 52" fill="none" xmlns="http://www.w3.org/2000/svg">
<rect width="151" height="52" rx="26" fill="#FEF9C3"/>
<path d="M20.6 33.408C20.104 30.944 20.064 29.032 20.48 27.672C21.424 27.448 22.328 27.232 23.192 27.024C24.056 26.816 24.856 26.56 25.592 26.256C26.344 25.936 27 25.52 27.56 25.008C28.12 24.48 28.568 23.792 28.904 22.944L28.232 22.704C27.736 23.936 26.872 24.84 25.64 25.416C24.408 25.976 22.76 26.248 20.696 26.232C20.536 25.208 20.416 24.176 20.336 23.136C20.272 22.08 20.24 21.08 20.24 20.136C20.256 19.192 20.296 18.36 20.36 17.64C20.44 16.904 20.528 16.344 20.624 15.96C21.088 15.96 21.664 15.968 22.352 15.984C23.056 16 23.808 16.024 24.608 16.056C25.408 16.072 26.184 16.088 26.936 16.104C27.688 16.12 28.344 16.136 28.904 16.152C28.696 16.632 28.496 17.112 28.304 17.592C28.112 18.072 28.096 18.536 28.256 18.984C28.464 18.104 28.88 17.408 29.504 16.896C30.128 16.384 30.912 16.016 31.856 15.792C32.816 15.568 33.88 15.456 35.048 15.456C36.52 15.456 37.8 15.64 38.888 16.008C39.976 16.36 40.824 16.936 41.432 17.736C42.04 18.536 42.344 19.616 42.344 20.976C42.344 21.888 42.184 22.616 41.864 23.16C41.544 23.704 41.104 24.16 40.544 24.528C39.984 24.88 39.344 25.216 38.624 25.536C37.92 25.856 37.184 26.248 36.416 26.712L36.848 27.264C37.84 26.704 38.784 26.256 39.68 25.92C40.576 25.568 41.4 25.472 42.152 25.632C42.264 26.096 42.336 26.696 42.368 27.432C42.416 28.168 42.432 28.928 42.416 29.712C42.416 30.496 42.376 31.224 42.296 31.896C42.216 32.568 42.112 33.072 41.984 33.408C41.104 33.376 40.264 33.344 39.464 33.312C38.68 33.28 37.872 33.24 37.04 33.192C36.224 33.144 35.328 33.104 34.352 33.072C33.392 33.056 32.28 33.048 31.016 33.048C29.384 33.048 27.992 33.056 26.84 33.072C25.688 33.104 24.72 33.136 23.936 33.168C23.152 33.216 22.496 33.256 21.968 33.288C21.44 33.336 20.984 33.376 20.6 33.408ZM54.3286 33.84C50.4246 33.84 47.5366 33.088 45.6646 31.584C43.8086 30.08 42.8806 27.856 42.8806 24.912C42.8806 21.664 43.8246 19.28 45.7126 17.76C47.6006 16.24 50.5126 15.48 54.4486 15.48C57.2166 15.48 59.4566 15.816 61.1686 16.488C62.8966 17.144 64.1606 18.128 64.9606 19.44C65.7606 20.752 66.1606 22.384 66.1606 24.336C66.1606 27.616 65.1926 30.024 63.2566 31.56C61.3366 33.08 58.3606 33.84 54.3286 33.84ZM53.8486 25.968H55.1926V23.352H53.8486V25.968ZM78.0943 33.84C74.1903 33.84 71.3023 33.088 69.4303 31.584C67.5743 30.08 66.6463 27.856 66.6463 24.912C66.6463 21.664 67.5903 19.28 69.4783 17.76C71.3663 16.24 74.2783 15.48 78.2143 15.48C80.9823 15.48 83.2223 15.816 84.9343 16.488C86.6623 17.144 87.9263 18.128 88.7263 19.44C89.5263 20.752 89.9263 22.384 89.9263 24.336C89.9263 27.616 88.9583 30.024 87.0223 31.56C85.1023 33.08 82.1263 33.84 78.0943 33.84ZM77.6143 25.968H78.9583V23.352H77.6143V25.968Z" fill="#713F12"/>
<path d="M130.858 26C130.858 35.9411 122.227 44 112.286 44C102.345 44 95.7148 35.9411 95.7148 26C95.7148 16.0589 102.345 8 112.286 8C122.227 8 130.858 16.0589 130.858 26Z" fill="#CA8A04"/>
<path d="M128.855 26C128.855 35.9411 122.225 44 112.284 44C102.343 44 94.8555 35.9411 94.8555 26C94.8555 16.0589 102.343 8 112.284 8C122.225 8 128.855 16.0589 128.855 26Z" fill="#FACC15"/>
<g filter="url(#filter0_d_121_8396)">
<path d="M101.999 28.9633C101.131 28.9633 100.429 28.8376 99.8931 28.5862C99.3571 28.3348 98.9658 27.9838 98.7192 27.5332C98.4773 27.0779 98.3563 26.5514 98.3563 25.9537C98.3563 25.3418 98.4749 24.8201 98.7121 24.3884C98.9492 23.9568 99.2765 23.6271 99.6939 23.3994C100.116 23.1718 100.6 23.0579 101.145 23.0579C101.52 23.0579 101.84 23.0959 102.106 23.1718C102.371 23.2477 102.575 23.3781 102.718 23.5631C102.865 23.7481 102.941 24.0042 102.945 24.3315C103.012 24.1513 103.036 23.9686 103.017 23.7836C103.002 23.5939 102.986 23.4042 102.967 23.2145C103.194 23.2097 103.453 23.205 103.742 23.2002C104.032 23.1907 104.314 23.1813 104.589 23.1718C104.864 23.1623 105.097 23.1575 105.286 23.1575C105.319 23.3046 105.346 23.4896 105.365 23.7125C105.383 23.9307 105.393 24.1655 105.393 24.4169C105.398 24.6683 105.393 24.9149 105.379 25.1568C105.365 25.3987 105.341 25.6146 105.308 25.8043C105.161 25.828 104.976 25.847 104.753 25.8612C104.53 25.8754 104.288 25.8849 104.027 25.8897C103.771 25.8897 103.515 25.8897 103.258 25.8897C103.007 25.8849 102.775 25.8754 102.561 25.8612C102.348 25.847 102.172 25.828 102.035 25.8043L102.028 25.5126H101.651V26.4304H102.028V26.096C102.578 26.0675 103.119 26.0533 103.65 26.0533C104.186 26.0533 104.755 26.0675 105.357 26.096C105.334 26.7458 105.203 27.2842 104.966 27.7111C104.734 28.1332 104.376 28.4487 103.892 28.6574C103.408 28.8613 102.777 28.9633 101.999 28.9633ZM108.985 28.9633C107.846 28.9633 106.985 28.7214 106.402 28.2376C105.823 27.7538 105.534 27.0375 105.534 26.0889C105.534 25.0454 105.828 24.2793 106.416 23.7908C107.004 23.3022 107.872 23.0579 109.02 23.0579C110.244 23.0579 111.14 23.2998 111.71 23.7836C112.279 24.2627 112.563 24.9695 112.563 25.9039C112.563 26.9617 112.262 27.7372 111.66 28.2305C111.057 28.719 110.166 28.9633 108.985 28.9633ZM108.828 26.466H109.262V25.5482H108.828V26.466ZM112.701 28.8352C112.658 28.7356 112.625 28.6099 112.602 28.4582C112.578 28.3064 112.564 28.1498 112.559 27.9886C112.554 27.8226 112.559 27.6637 112.573 27.5119C112.592 27.3601 112.618 27.2344 112.651 27.1348C112.723 27.1063 112.794 27.0589 112.865 26.9925C112.941 26.9213 113.002 26.8099 113.05 26.6581C113.097 26.5016 113.121 26.2834 113.121 26.0035C113.121 25.6999 113.092 25.4723 113.036 25.3205C112.979 25.1639 112.912 25.0596 112.836 25.0074C112.765 24.9505 112.704 24.922 112.651 24.922C112.609 24.8367 112.575 24.7204 112.552 24.5734C112.528 24.4264 112.516 24.2698 112.516 24.1038C112.521 23.9331 112.535 23.7694 112.559 23.6129C112.587 23.4516 112.628 23.3141 112.68 23.2002C112.822 23.2097 113.005 23.2239 113.228 23.2429C113.451 23.2619 113.685 23.2785 113.932 23.2927C114.183 23.3022 114.416 23.3069 114.629 23.3069C114.866 23.3069 115.111 23.3022 115.362 23.2927C115.614 23.2785 115.851 23.2619 116.074 23.2429C116.297 23.2239 116.479 23.2097 116.621 23.2002C116.669 23.3141 116.705 23.4516 116.728 23.6129C116.752 23.7694 116.764 23.9331 116.764 24.1038C116.764 24.2746 116.754 24.4335 116.735 24.5805C116.716 24.7276 116.686 24.8438 116.643 24.9292C116.572 24.9292 116.501 24.9576 116.429 25.0145C116.358 25.0667 116.299 25.1687 116.252 25.3205C116.204 25.4723 116.18 25.6999 116.18 26.0035C116.18 26.2834 116.204 26.5016 116.252 26.6581C116.304 26.8099 116.365 26.9213 116.437 26.9925C116.508 27.0589 116.579 27.1063 116.65 27.1348C116.688 27.2344 116.714 27.3601 116.728 27.5119C116.742 27.6637 116.747 27.8226 116.742 27.9886C116.738 28.1498 116.723 28.3064 116.7 28.4582C116.676 28.6099 116.643 28.7356 116.6 28.8352C116.458 28.821 116.275 28.8044 116.052 28.7854C115.829 28.7712 115.592 28.757 115.341 28.7428C115.089 28.7285 114.845 28.7214 114.608 28.7214C114.39 28.7214 114.16 28.7285 113.918 28.7428C113.681 28.757 113.453 28.7712 113.235 28.7854C113.021 28.8044 112.843 28.821 112.701 28.8352ZM117.051 28.8352C117.013 28.7356 116.982 28.6099 116.958 28.4582C116.934 28.3064 116.92 28.1498 116.915 27.9886C116.915 27.8226 116.92 27.6637 116.93 27.5119C116.944 27.3601 116.968 27.2344 117.001 27.1348C117.077 27.1063 117.15 27.0589 117.221 26.9925C117.292 26.9213 117.352 26.8099 117.399 26.6581C117.447 26.5016 117.47 26.2834 117.47 26.0035C117.47 25.6999 117.442 25.4723 117.385 25.3205C117.333 25.1639 117.269 25.0596 117.193 25.0074C117.122 24.9505 117.058 24.922 117.001 24.922C116.958 24.8367 116.927 24.7204 116.908 24.5734C116.889 24.4264 116.88 24.2698 116.88 24.1038C116.885 23.9331 116.899 23.7694 116.922 23.6129C116.946 23.4516 116.982 23.3141 117.029 23.2002C117.162 23.2097 117.316 23.2239 117.492 23.2429C117.672 23.2571 117.855 23.2714 118.04 23.2856C118.229 23.2951 118.405 23.2998 118.566 23.2998C118.912 23.2998 119.275 23.2927 119.655 23.2785C120.039 23.2595 120.485 23.2334 120.992 23.2002C120.916 23.5133 120.886 23.7694 120.9 23.9686C120.919 24.1679 121.006 24.341 121.163 24.488C121.32 24.6351 121.561 24.7869 121.889 24.9434L121.981 24.7584C121.682 24.6161 121.464 24.4833 121.327 24.36C121.194 24.2319 121.123 24.0801 121.113 23.9046C121.104 23.7244 121.135 23.4896 121.206 23.2002C121.41 23.205 121.64 23.2239 121.896 23.2571C122.157 23.2903 122.453 23.3069 122.785 23.3069C123.079 23.3069 123.345 23.2951 123.582 23.2714C123.824 23.2429 124.042 23.2192 124.237 23.2002C124.279 23.3141 124.313 23.4516 124.336 23.6129C124.36 23.7694 124.372 23.9331 124.372 24.1038C124.372 24.2746 124.362 24.4335 124.343 24.5805C124.324 24.7276 124.296 24.8438 124.258 24.9292C124.201 24.9292 124.135 24.9576 124.059 25.0145C123.988 25.0667 123.926 25.1687 123.874 25.3205C123.822 25.4723 123.796 25.6999 123.796 26.0035C123.796 26.2834 123.819 26.5016 123.867 26.6581C123.914 26.8099 123.973 26.9213 124.045 26.9925C124.116 27.0589 124.189 27.1063 124.265 27.1348C124.298 27.2344 124.32 27.3601 124.329 27.5119C124.343 27.6637 124.348 27.8226 124.343 27.9886C124.343 28.1498 124.332 28.3064 124.308 28.4582C124.284 28.6099 124.253 28.7356 124.215 28.8352C124.026 28.8115 123.786 28.7854 123.497 28.757C123.212 28.7333 122.916 28.7214 122.607 28.7214C122.209 28.7214 121.822 28.7356 121.448 28.7641C121.073 28.7926 120.667 28.8163 120.231 28.8352C120.297 28.5222 120.323 28.2589 120.309 28.0455C120.295 27.832 120.231 27.6447 120.117 27.4834C120.003 27.3174 119.832 27.1609 119.605 27.0138L119.491 27.1846C119.695 27.3221 119.844 27.4668 119.939 27.6186C120.034 27.7656 120.084 27.9388 120.089 28.138C120.098 28.3325 120.072 28.5649 120.01 28.8352C119.854 28.8163 119.662 28.7926 119.434 28.7641C119.211 28.7356 118.946 28.7214 118.637 28.7214C118.348 28.7214 118.059 28.7356 117.769 28.7641C117.485 28.7926 117.245 28.8163 117.051 28.8352Z" fill="#854D0E"/>
</g>
<defs>
<filter id="filter0_d_121_8396" x="98.3555" y="23.0579" width="26.3013" height="6.47682" filterUnits="userSpaceOnUse" color-interpolation-filters="sRGB">
<feFlood flood-opacity="0" result="BackgroundImageFix"/>
<feColorMatrix in="SourceAlpha" type="matrix" values="0 0 0 0 0 0 0 0 0 0 0 0 0 0 0 0 0 0 127 0" result="hardAlpha"/>
<feOffset dx="0.285714" dy="0.571429"/>
<feComposite in2="hardAlpha" operator="out"/>
<feColorMatrix type="matrix" values="0 0 0 0 0.443137 0 0 0 0 0.247059 0 0 0 0 0.0705882 0 0 0 1 0"/>
<feBlend mode="normal" in2="BackgroundImageFix" result="effect1_dropShadow_121_8396"/>
<feBlend mode="normal" in="SourceGraphic" in2="effect1_dropShadow_121_8396" result="shape"/>
</filter>
</defs>
</svg>

