<svg width="240" height="201" viewBox="0 0 240 201" fill="none" xmlns="http://www.w3.org/2000/svg">
<g clip-path="url(#clip0_139_9572)">
<rect x="12" y="10" width="160" height="160" rx="38.4" fill="#F43F5E"/>
<circle cx="77.6008" cy="75.6" r="4.8" fill="#292524"/>
<circle cx="106.402" cy="75.6" r="4.8" fill="#292524"/>
<path d="M71.1992 93.2C85.5992 106.8 101.599 106.8 112.799 93.2" stroke="black" stroke-width="4.8" stroke-linecap="round"/>
<circle cx="35.2" cy="30" r="28.8" fill="#22D3EE" stroke="#292524" stroke-width="4.8"/>
<circle cx="76.7996" cy="29.9999" r="28.8" fill="#22D3EE" stroke="#292524" stroke-width="4.8"/>
<circle cx="123.2" cy="29.9999" r="28.8" fill="#22D3EE" stroke="#292524" stroke-width="4.8"/>
<circle cx="169.6" cy="29.9999" r="28.8" fill="#22D3EE" stroke="#292524" stroke-width="4.8"/>
<circle cx="23.2" cy="198.8" r="80.8" fill="#FACC15" stroke="#292524" stroke-width="4.8"/>
<circle cx="156.001" cy="198.8" r="80.8" fill="#FACC15" stroke="#292524" stroke-width="4.8"/>
</g>
<rect x="14.4" y="12.4" width="155.2" height="155.2" rx="36" stroke="#292524" stroke-width="4.8"/>
<path d="M206.066 99.4341L206.066 99.4341C204.988 98.3558 203.525 97.75 202 97.75H138.25C134.736 97.75 131.366 99.146 128.881 101.631C126.396 104.116 125 107.486 125 111V171C125 174.514 126.396 177.884 128.881 180.369C131.366 182.854 134.736 184.25 138.25 184.25H213.25C215.77 184.25 218.186 183.249 219.968 181.468C221.749 179.686 222.75 177.27 222.75 174.75V122.25C222.75 119.73 221.749 117.314 219.968 115.532C218.186 113.751 215.77 112.75 213.25 112.75H138.25C137.786 112.75 137.341 112.566 137.013 112.237C136.684 111.909 136.5 111.464 136.5 111C136.5 110.536 136.684 110.091 137.013 109.763C137.341 109.434 137.786 109.25 138.25 109.25H202C203.525 109.25 204.988 108.644 206.066 107.566L204.652 106.152L206.066 107.566C207.144 106.488 207.75 105.025 207.75 103.5C207.75 101.975 207.144 100.512 206.066 99.4341ZM196.375 150.25C195.658 150.25 194.957 150.037 194.361 149.639C193.765 149.241 193.3 148.675 193.026 148.012C192.752 147.35 192.68 146.621 192.82 145.918C192.96 145.215 193.305 144.569 193.812 144.062C194.319 143.555 194.965 143.21 195.668 143.07C196.371 142.93 197.1 143.002 197.762 143.276C198.425 143.55 198.991 144.015 199.389 144.611C199.787 145.207 200 145.908 200 146.625C200 147.586 199.618 148.508 198.938 149.188C198.258 149.868 197.336 150.25 196.375 150.25Z" fill="#9333EA" stroke="#292524" stroke-width="4"/>
<g clip-path="url(#clip1_139_9572)">
<path d="M199.602 119.251L199.602 119.251L207.019 121.981L209.755 129.385C209.755 129.386 209.755 129.386 209.755 129.386C210.037 130.151 210.547 130.812 211.216 131.278C211.885 131.745 212.681 131.995 213.497 131.995C214.313 131.995 215.109 131.745 215.778 131.278C216.447 130.812 216.957 130.151 217.239 129.385L219.968 121.972L227.38 119.245C227.381 119.245 227.383 119.244 227.385 119.244C228.154 118.965 228.818 118.455 229.286 117.784C229.754 117.113 230.003 116.313 229.999 115.494C229.997 114.678 229.743 113.883 229.272 113.216L228.047 114.081L229.272 113.216C228.802 112.551 228.139 112.046 227.373 111.771L219.966 109.044L217.236 101.624L217.236 101.624C216.954 100.858 216.444 100.198 215.775 99.7309L214.917 100.961L215.775 99.7309C215.106 99.2642 214.31 99.014 213.494 99.014C212.678 99.014 211.882 99.2642 211.213 99.7309L212.071 100.961L211.213 99.7309C210.544 100.198 210.034 100.858 209.752 101.624C209.752 101.624 209.752 101.624 209.752 101.624L207.022 109.038L199.603 111.767L199.602 111.767C198.837 112.049 198.176 112.559 197.709 113.228C197.242 113.897 196.992 114.694 196.992 115.509C196.992 116.325 197.242 117.121 197.709 117.791C198.176 118.46 198.837 118.97 199.602 119.251ZM219.749 102H220.749V103C220.749 103.729 221.038 104.429 221.554 104.945C222.07 105.46 222.769 105.75 223.499 105.75C224.228 105.75 224.927 105.46 225.443 104.945C225.959 104.429 226.249 103.729 226.249 103V102H227.249C227.978 102 228.677 101.71 229.193 101.195C229.709 100.679 229.999 99.9793 229.999 99.25C229.999 98.5207 229.709 97.8212 229.193 97.3055C228.677 96.7897 227.978 96.5 227.249 96.5H226.249V95.5C226.249 94.7707 225.959 94.0712 225.443 93.5555C224.927 93.0397 224.228 92.75 223.499 92.75C222.769 92.75 222.07 93.0397 221.554 93.5555C221.038 94.0712 220.749 94.7707 220.749 95.5V96.5H219.749C219.019 96.5 218.32 96.7897 217.804 97.3055C217.288 97.8212 216.999 98.5207 216.999 99.25C216.999 99.9793 217.288 100.679 217.804 101.195C218.32 101.71 219.019 102 219.749 102ZM232.943 102.305L231.882 103.366L232.943 102.305C232.427 101.79 231.728 101.5 230.999 101.5C230.269 101.5 229.57 101.79 229.054 102.305C228.595 102.764 228.315 103.369 228.259 104.01C227.617 104.067 227.013 104.346 226.554 104.805C226.038 105.321 225.749 106.021 225.749 106.75C225.749 107.479 226.038 108.179 226.554 108.695C227.013 109.154 227.617 109.433 228.259 109.49C228.315 110.131 228.595 110.736 229.054 111.195C229.57 111.71 230.269 112 230.999 112C231.728 112 232.427 111.71 232.943 111.195C233.402 110.736 233.682 110.131 233.738 109.49C234.38 109.433 234.984 109.154 235.443 108.695L234.382 107.634L235.443 108.695C235.959 108.179 236.249 107.479 236.249 106.75C236.249 106.021 235.959 105.321 235.443 104.805L234.382 105.866L235.443 104.805C234.984 104.346 234.38 104.067 233.738 104.01C233.682 103.369 233.402 102.764 232.943 102.305Z" fill="#FACC15" stroke="#292524" stroke-width="3"/>
</g>
<defs>
<clipPath id="clip0_139_9572">
<rect x="12" y="10" width="160" height="160" rx="38.4" fill="white"/>
</clipPath>
<clipPath id="clip1_139_9572">
<rect width="40" height="40" fill="white" transform="translate(196 93)"/>
</clipPath>
</defs>
</svg>
